<svg xmlns="http://www.w3.org/2000/svg" xmlns:xlink="http://www.w3.org/1999/xlink" width="307.031" height="272.15" viewBox="0 0 307.031 272.15">
  <defs>
    <filter id="제외_2" x="0" y="0" width="307.031" height="272.15" filterUnits="userSpaceOnUse">
      <feOffset dy="7" input="SourceAlpha"/>
      <feGaussianBlur stdDeviation="4" result="blur"/>
      <feFlood flood-opacity="0.42"/>
      <feComposite operator="in" in2="blur"/>
      <feComposite in="SourceGraphic"/>
    </filter>
  </defs>
  <g transform="matrix(1, 0, 0, 1, 0, 0)" filter="url(#제외_2)">
    <path id="제외_2-2" data-name="제외 2" d="M-407.128,3292.151H-633.84a25.989,25.989,0,0,1-10.181-2.056,26.108,26.108,0,0,1-8.315-5.607,26.077,26.077,0,0,1-5.607-8.315A25.968,25.968,0,0,1-660,3265.992V3109.038a25.973,25.973,0,0,1,2.056-10.18,26.079,26.079,0,0,1,5.607-8.315,26.1,26.1,0,0,1,8.315-5.608,25.989,25.989,0,0,1,10.181-2.056h47.958l6.7-17.929a25.961,25.961,0,0,1,9.578-12.3A26.032,26.032,0,0,1-554.709,3048h68.4a26.031,26.031,0,0,1,14.891,4.653,25.969,25.969,0,0,1,9.578,12.3l6.758,17.93h47.958a25.981,25.981,0,0,1,10.18,2.056,26.094,26.094,0,0,1,8.315,5.608,26.1,26.1,0,0,1,5.608,8.315,25.981,25.981,0,0,1,2.056,10.18v156.955a25.983,25.983,0,0,1-2.056,10.181,26.1,26.1,0,0,1-5.608,8.315,26.108,26.108,0,0,1-8.315,5.607A25.981,25.981,0,0,1-407.128,3292.151Zm-98.115-113.737a4.21,4.21,0,0,1,4.2,4.2,4.209,4.209,0,0,1-4.2,4.2c-28.572,0-53,7.454-72.6,22.154-14.881,11.159-24.064,24.656-27.7,33.567a8.427,8.427,0,0,0,4.6,10.932,8.342,8.342,0,0,0,3.208.644,8.427,8.427,0,0,0,7.778-5.19c.208-.5,5.244-12.382,18.9-23.811a50.524,50.524,0,0,0,40.418,20.586,53.037,53.037,0,0,0,5.55-.3c40.739-2.958,70.307-38.839,70.307-85.316a96.255,96.255,0,0,0-7.833-38,4.14,4.14,0,0,0-3.763-2.556,4.234,4.234,0,0,0-3.675,2.24,45.083,45.083,0,0,1-39.4,23h-21.026a50.521,50.521,0,0,0-50.464,50.464,45.4,45.4,0,0,0,.329,4.765c.02.186.039.368.058.551l0,.018.006.054C-559.972,3185.885-534.637,3178.414-505.243,3178.414ZM-558,3060a9.01,9.01,0,0,0-9,9v10a2,2,0,0,0,2,2h27a2,2,0,0,0,2-2v-17a2,2,0,0,0-2-2Z" transform="translate(674 -3041)" fill="#009f5a" stroke="rgba(43,43,43,0.7)" stroke-width="4"/>
  </g>
</svg>
